<svg width="46" height="45" viewBox="0 0 46 45" fill="none" xmlns="http://www.w3.org/2000/svg">
<path d="M19.5713 1.10694C15.6677 1.59577 11.6199 3.24846 8.52108 5.64602C0.173378 12.0706 -2.38498 23.2786 2.38342 32.4848C5.49429 38.5136 11.0074 42.6221 18.0098 44.1118C19.4271 44.426 19.6794 44.4377 22.514 44.4377C25.3486 44.4377 25.6008 44.426 27.0181 44.1118C31.8346 43.0876 35.8463 40.8879 39.0292 37.5476C45.4672 30.7739 46.8484 20.9741 42.5004 12.734C41.5275 10.8834 40.5066 9.47514 39.1133 8.02031C35.4619 4.22611 30.7055 1.79363 25.6969 1.14186C24.3277 0.967283 20.8444 0.944003 19.5713 1.10694ZM25.781 2.49195C30.4293 3.2601 34.0206 5.01753 37.3357 8.12506C40.6267 11.2326 42.6205 14.9686 43.4253 19.5426C43.6775 20.9741 43.7135 24.361 43.4853 25.7111C42.9568 28.935 41.6837 31.996 39.7739 34.6147C38.6088 36.2324 36.0505 38.6649 34.417 39.724C32.0628 41.2371 29.8047 42.1681 26.838 42.8315C25.4927 43.1342 25.2165 43.1574 22.6341 43.1691C19.5953 43.1691 18.9707 43.0992 16.6526 42.4591C14.2864 41.8073 11.8121 40.6202 9.89034 39.2236C8.83337 38.467 6.75545 36.5234 6.01076 35.6156C3.96888 33.1249 2.56358 30.2851 1.86694 27.2823C0.3055 20.5202 2.28733 13.5952 7.18785 8.63716C10.623 5.1572 14.5506 3.19027 19.5352 2.44539C21.1928 2.18934 24.0874 2.21262 25.781 2.49195Z" fill="black"/>
<path d="M21.7813 3.83042C21.6852 4.07483 21.8054 4.35416 22.0095 4.35416C22.2618 4.35416 22.466 4.06319 22.3819 3.84206C22.2858 3.60928 21.8654 3.59764 21.7813 3.83042Z" fill="black"/>
<path d="M23.583 3.83042C23.4749 4.09811 23.6191 4.35416 23.8833 4.35416C24.1596 4.35416 24.3037 4.02827 24.1235 3.81878C23.9434 3.60928 23.6671 3.60928 23.583 3.83042Z" fill="black"/>
<path d="M19.9796 3.94678C19.8835 4.19119 20.0036 4.47052 20.2078 4.47052C20.46 4.47052 20.6642 4.17955 20.5801 3.95842C20.484 3.72565 20.0637 3.71401 19.9796 3.94678Z" fill="black"/>
<path d="M25.4206 3.97008C25.2645 4.10974 25.3366 4.44727 25.5408 4.5171C25.6489 4.56365 25.817 4.52874 25.9011 4.43563C25.9972 4.35416 26.0332 4.19121 25.9852 4.08647C25.9131 3.88861 25.5648 3.81878 25.4206 3.97008Z" fill="black"/>
<path d="M18.274 4.10973C18.0338 4.24939 18.1539 4.64511 18.4422 4.68002C18.7425 4.72658 18.9226 4.4007 18.7184 4.16792C18.5623 3.9817 18.4902 3.97007 18.274 4.10973Z" fill="black"/>
<path d="M27.1503 4.44724C27.0662 4.59855 27.0782 4.71493 27.1623 4.7964C27.4746 5.09901 27.931 4.81968 27.7268 4.44724C27.6667 4.33086 27.5346 4.23775 27.4385 4.23775C27.3424 4.23775 27.2103 4.33086 27.1503 4.44724Z" fill="black"/>
<path d="M16.4723 4.57525C16.1961 4.73819 16.3522 5.11063 16.6885 5.11063C16.9288 5.11063 16.9888 5.05243 16.9888 4.81966C16.9888 4.51705 16.7486 4.40067 16.4723 4.57525Z" fill="black"/>
<path d="M28.8679 4.99428C28.8198 5.09903 28.8439 5.23869 28.9159 5.30852C29.1081 5.49474 29.4805 5.36672 29.4805 5.11067C29.4805 4.80806 28.976 4.71495 28.8679 4.99428Z" fill="black"/>
<path d="M14.7668 5.22702C14.5626 5.4598 14.7068 5.75076 15.007 5.75076C15.1392 5.75076 15.2833 5.66929 15.3193 5.57618C15.3914 5.4016 15.1872 5.05244 15.007 5.05244C14.959 5.05244 14.8509 5.13391 14.7668 5.22702Z" fill="black"/>
<path d="M30.6454 5.50637C30.3932 5.65768 30.5253 6.04175 30.8376 6.07667C31.1619 6.12322 31.3181 5.82062 31.1019 5.57621C30.9337 5.37835 30.8616 5.36671 30.6454 5.50637Z" fill="black"/>
<path d="M13.0854 6.04174C12.9532 6.19304 12.9532 6.26288 13.1214 6.41418C13.3736 6.65859 13.7099 6.51893 13.6619 6.19304C13.6138 5.86716 13.3015 5.78569 13.0854 6.04174Z" fill="black"/>
<path d="M32.183 6.3909C31.9668 6.63531 32.1229 6.91464 32.4832 6.91464C32.6994 6.91464 32.7835 6.85645 32.7835 6.68187C32.7835 6.36763 32.3751 6.16977 32.183 6.3909Z" fill="black"/>
<path d="M11.5839 6.86809C11.3557 7.08923 11.3557 7.19398 11.5719 7.36856C11.8122 7.55478 12.1244 7.40347 12.1244 7.08923C12.1244 6.75171 11.8242 6.63532 11.5839 6.86809Z" fill="black"/>
<path d="M33.7084 7.34526C33.5522 7.48493 33.6243 7.82245 33.8285 7.89228C33.9366 7.93883 34.1047 7.90392 34.1888 7.81081C34.2849 7.72934 34.3209 7.5664 34.2729 7.46165C34.2008 7.26379 33.8525 7.19396 33.7084 7.34526Z" fill="black"/>
<path d="M9.99849 8.03196C9.95045 8.15998 10.0105 8.28801 10.1426 8.39275C10.3348 8.52078 10.3949 8.52078 10.539 8.38112C10.6351 8.28801 10.6831 8.12506 10.6471 8.03196C10.551 7.78754 10.0946 7.78754 9.99849 8.03196Z" fill="black"/>
<path d="M35.1977 8.41605C35.1136 8.47424 35.0655 8.61391 35.0896 8.73029C35.1376 9.02126 35.7021 9.0329 35.7622 8.75357C35.8102 8.5208 35.4139 8.28803 35.1977 8.41605Z" fill="black"/>
<path d="M8.72521 9.09108C8.56906 9.23074 8.64113 9.56827 8.84532 9.6381C9.09755 9.73121 9.42185 9.44024 9.32576 9.19583C9.2537 9.00961 8.86934 8.93978 8.72521 9.09108Z" fill="black"/>
<path d="M36.3387 9.77774C36.2306 10.0338 36.5429 10.348 36.8072 10.2433C36.9273 10.2084 36.9873 10.0687 36.9633 9.91741C36.9153 9.57988 36.4589 9.48678 36.3387 9.77774Z" fill="black"/>
<path d="M7.48815 10.4645C7.38005 10.7321 7.5362 11.0115 7.76441 10.9649C7.89653 10.9416 7.99262 10.802 8.01664 10.6041C8.05267 10.3481 8.00463 10.2899 7.80044 10.2899C7.66832 10.2899 7.52419 10.3713 7.48815 10.4645Z" fill="black"/>
<path d="M37.6719 10.9998C37.4077 11.1511 37.4077 11.4188 37.6839 11.5584C38.0683 11.7563 38.3686 11.2791 38.0323 11.0114C37.9362 10.93 37.8161 10.93 37.6719 10.9998Z" fill="black"/>
<path d="M6.31111 11.8844C6.20301 12.1288 6.50329 12.4197 6.75552 12.315C6.86362 12.2801 6.95971 12.1171 6.95971 11.9658C6.95971 11.7447 6.89965 11.6865 6.67144 11.6865C6.5153 11.6865 6.34714 11.7796 6.31111 11.8844Z" fill="black"/>
<path d="M38.5969 12.5594C38.5008 12.8038 38.6209 13.0831 38.8251 13.0831C39.0773 13.0831 39.2815 12.7922 39.1974 12.571C39.1013 12.3383 38.681 12.3266 38.5969 12.5594Z" fill="black"/>
<path d="M5.42218 13.2228C5.21799 13.4207 5.24201 13.6418 5.49424 13.7698C5.65039 13.8513 5.7705 13.8396 5.85458 13.7582C6.05876 13.5603 6.03474 13.2344 5.80653 13.153C5.56631 13.0599 5.59033 13.0599 5.42218 13.2228Z" fill="black"/>
<path d="M9.48193 13.281C9.48193 13.3741 9.65009 13.4323 9.96238 13.4323C10.647 13.4323 11.2596 13.7116 11.4037 14.0841C11.4878 14.2819 11.5118 16.9006 11.4998 21.5328L11.4638 28.6673L11.1995 28.935C10.9953 29.1212 10.7431 29.2027 10.2026 29.2376C9.69813 29.2725 9.48193 29.3307 9.48193 29.4471C9.48193 29.5868 10.5389 29.61 16.016 29.61C21.8654 29.61 22.55 29.5868 22.6221 29.4238C22.6581 29.3191 22.6941 28.7604 22.7061 28.1785C22.7061 27.5849 22.7542 26.6655 22.8142 26.1184C22.8983 25.1874 22.8022 24.6287 22.6221 25.1408C22.3098 26.0719 21.6732 27.0845 21.0126 27.6664C19.9316 28.644 19.331 28.8303 17.0129 28.8884C14.7908 28.9466 14.4785 28.8652 14.2744 28.225C14.1903 27.9457 14.1663 25.5482 14.1903 20.9742L14.2263 14.1306L14.5506 13.8164C14.8149 13.5603 15.019 13.5021 15.6076 13.4556C16.076 13.4207 16.3282 13.3625 16.2922 13.2694C16.2201 13.0715 9.48193 13.0832 9.48193 13.281Z" fill="black"/>
<path d="M23.2587 13.153C23.1025 13.3159 23.3308 13.4323 23.7872 13.4323C24.4598 13.4323 25.0724 13.7116 25.2165 14.0841C25.3006 14.2819 25.3246 16.9006 25.3126 21.5328L25.2765 28.6673L25.0123 28.9234C24.8201 29.1096 24.5439 29.2027 23.9914 29.2492C23.571 29.2842 23.2467 29.3656 23.2707 29.4355C23.2827 29.5169 25.4327 29.5518 29.3963 29.5518H35.486L35.558 28.388C35.5941 27.7479 35.6661 26.8168 35.7142 26.3163C35.7862 25.6878 35.7622 25.4201 35.6781 25.4201C35.5941 25.4201 35.51 25.5132 35.4619 25.618C34.9815 27.0263 34.1287 28.0155 32.9877 28.516C32.3391 28.7953 32.0628 28.8419 30.7776 28.8884C28.8799 28.9583 28.5075 28.8884 28.2193 28.4113C27.9911 28.0621 27.979 27.806 27.979 24.6752V21.3233L29.8768 21.3582C31.5944 21.4048 31.8106 21.4281 32.3631 21.6958C33.0357 22.0216 33.4681 22.5687 33.5762 23.2321C33.6242 23.5114 33.7203 23.6743 33.8404 23.6743C33.9726 23.6743 33.9966 23.5929 33.9365 23.3135C33.9005 23.1157 33.8645 21.9867 33.8645 20.8112C33.8645 19.531 33.8164 18.6697 33.7444 18.6697C33.6843 18.6697 33.6002 18.8559 33.5522 19.0887C33.5041 19.3215 33.312 19.6939 33.1198 19.9034C32.5793 20.497 31.8826 20.6483 29.7567 20.6483H27.979V17.7037C27.979 14.4681 28.0151 14.3285 28.6997 13.9793C29.048 13.8047 29.3603 13.7815 30.5614 13.8047C32.1349 13.8513 32.8555 14.0608 33.5522 14.6893C33.9125 15.0268 34.5851 16.2605 34.5851 16.598C34.5851 16.7144 34.6692 16.8075 34.7653 16.8075C34.9214 16.8075 34.9455 16.5515 34.9214 14.9686L34.8854 13.1413L29.1081 13.1064C25.9372 13.0948 23.3067 13.1181 23.2587 13.153Z" fill="black"/>
<path d="M39.4617 14.084C39.3536 14.3401 39.6659 14.6543 39.9301 14.5496C40.0502 14.5147 40.1103 14.375 40.0862 14.2237C40.0382 13.8862 39.5818 13.7931 39.4617 14.084Z" fill="black"/>
<path d="M4.60546 14.8755C4.49736 15.1548 4.65351 15.4341 4.88172 15.3876C5.02585 15.3643 5.09792 15.2479 5.09792 15.0617C5.09792 14.7242 4.71356 14.5845 4.60546 14.8755Z" fill="black"/>
<path d="M40.1943 15.6785C40.0982 15.9346 40.3985 16.2721 40.6387 16.1906C40.939 16.0743 40.8429 15.5971 40.5186 15.5505C40.3745 15.5272 40.2303 15.5854 40.1943 15.6785Z" fill="black"/>
<path d="M3.8848 16.5165C3.7767 16.7842 3.92084 17.0403 4.18508 17.0403C4.4253 17.0403 4.62949 16.6678 4.49737 16.4584C4.38927 16.2838 3.95687 16.3187 3.8848 16.5165Z" fill="black"/>
<path d="M40.8428 17.3662C40.7467 17.5408 40.7587 17.6339 40.8909 17.7386C41.1431 17.9481 41.4554 17.7852 41.4073 17.4826C41.3593 17.145 40.999 17.0752 40.8428 17.3662Z" fill="black"/>
<path d="M3.35632 18.3671C3.35632 18.7046 3.64459 18.8326 3.88481 18.5999C4.12503 18.3671 3.99291 18.0878 3.64459 18.0878C3.41638 18.0878 3.35632 18.146 3.35632 18.3671Z" fill="black"/>
<path d="M41.2273 19.0887C41.1912 19.1818 41.2513 19.3564 41.3594 19.4611C41.5396 19.6357 41.5636 19.6357 41.7437 19.4611C41.996 19.2167 41.8759 18.9025 41.5516 18.9025C41.4194 18.9025 41.2753 18.9839 41.2273 19.0887Z" fill="black"/>
<path d="M3.11619 19.8918C2.912 20.1245 3.05613 20.4155 3.35641 20.4155C3.48853 20.4155 3.63267 20.334 3.6687 20.2409C3.74077 20.0663 3.53658 19.7172 3.35641 19.7172C3.30837 19.7172 3.20027 19.7986 3.11619 19.8918Z" fill="black"/>
<path d="M41.4674 20.8345C41.4314 20.9276 41.4914 21.1022 41.5995 21.2069C41.7797 21.3815 41.8037 21.3815 41.9839 21.2069C42.2361 20.9625 42.116 20.6483 41.7917 20.6483C41.6596 20.6483 41.5154 20.7297 41.4674 20.8345Z" fill="black"/>
<path d="M2.95998 21.5444C2.81584 21.6725 2.86389 22.138 3.03204 22.1962C3.44042 22.3359 3.69265 21.6841 3.28428 21.5328C3.05607 21.4513 3.05607 21.4513 2.95998 21.5444Z" fill="black"/>
<path d="M41.5996 22.5686C41.4915 22.8363 41.6476 23.1157 41.8759 23.0691C42.008 23.0458 42.1041 22.9062 42.1281 22.7083C42.1641 22.4523 42.1161 22.3941 41.9119 22.3941C41.7798 22.3941 41.6356 22.4755 41.5996 22.5686Z" fill="black"/>
<path d="M3.032 23.2902C2.94792 23.3252 2.87585 23.4648 2.87585 23.6161C2.87585 23.8955 3.06803 24.0235 3.33228 23.942C3.40434 23.9071 3.47641 23.7674 3.47641 23.6161C3.47641 23.3368 3.28423 23.2088 3.032 23.2902Z" fill="black"/>
<path d="M41.4915 24.3726C41.3954 24.6752 41.5035 24.8382 41.8038 24.8382C42.104 24.8382 42.2241 24.5472 42.032 24.3144C41.8278 24.07 41.5876 24.0933 41.4915 24.3726Z" fill="black"/>
<path d="M3.17606 25.1175C2.98388 25.2572 2.95986 25.327 3.06796 25.5016C3.23611 25.7693 3.47634 25.7693 3.64449 25.5132C3.74058 25.3503 3.72857 25.2688 3.58444 25.1291C3.42829 24.9778 3.38025 24.9778 3.17606 25.1175Z" fill="black"/>
<path d="M41.2393 26.0602C41.1312 26.3279 41.2753 26.584 41.5516 26.584C41.8518 26.584 41.996 26.293 41.7918 26.0602C41.5996 25.8391 41.3234 25.8391 41.2393 26.0602Z" fill="black"/>
<path d="M3.50043 26.8051C3.2482 26.9564 3.38032 27.3405 3.69261 27.3754C3.93283 27.4103 3.96886 27.3754 3.93283 27.0961C3.8968 26.7469 3.74065 26.6538 3.50043 26.8051Z" fill="black"/>
<path d="M40.7949 27.8526C40.7228 28.1319 40.987 28.388 41.2633 28.2832C41.5395 28.1785 41.4314 27.7013 41.1192 27.6547C40.939 27.6315 40.8429 27.6897 40.7949 27.8526Z" fill="black"/>
<path d="M3.88479 28.6091C3.76468 28.9117 3.93284 29.1678 4.2211 29.1212C4.42529 29.0979 4.49736 29.0048 4.49736 28.7953C4.49736 28.5858 4.42529 28.4927 4.2211 28.4694C4.06496 28.4462 3.92083 28.5044 3.88479 28.6091Z" fill="black"/>
<path d="M40.2783 29.4238C40.1702 29.7032 40.3264 29.9825 40.5546 29.9359C40.6987 29.9126 40.7708 29.7963 40.7708 29.61C40.7708 29.2725 40.3864 29.1329 40.2783 29.4238Z" fill="black"/>
<path d="M4.58142 30.2269C4.47333 30.3433 4.48534 30.4364 4.60545 30.5993C4.82165 30.8903 5.18198 30.7506 5.13393 30.4015C5.08589 30.0872 4.7736 29.9941 4.58142 30.2269Z" fill="black"/>
<path d="M39.5097 31.0648C39.3775 31.2161 39.3775 31.286 39.5457 31.4373C39.7979 31.6817 40.1342 31.542 40.0862 31.2161C40.0382 30.8903 39.7259 30.8088 39.5097 31.0648Z" fill="black"/>
<path d="M13.1454 32.1356V33.1133L13.806 33.0784C14.3585 33.0434 14.4666 33.0085 14.5146 32.8107C14.5507 32.5895 14.5507 32.5895 14.3225 32.7758C14.1903 32.8921 13.9381 32.9853 13.758 32.9853H13.4216L13.4697 32.0658C13.4937 31.2976 13.4697 31.1463 13.3256 31.158C13.1814 31.1696 13.1454 31.3558 13.1454 32.1356Z" fill="black"/>
<path d="M22.7542 32.1123V33.1016H23.3907C23.9553 33.1016 24.0153 33.0783 24.0153 32.8339C24.0033 32.6012 23.9913 32.6012 23.8832 32.7757C23.8111 32.9038 23.6189 32.9852 23.4148 32.9852C23.0784 32.9852 23.0544 32.9503 23.0544 32.5662C23.0544 32.1589 23.0664 32.1473 23.4148 32.1938C23.643 32.2287 23.7751 32.1938 23.7751 32.1123C23.7751 32.0309 23.643 31.996 23.4148 32.0309C23.0664 32.0774 23.0544 32.0658 23.0544 31.6584C23.0544 31.286 23.0905 31.2394 23.3547 31.2394C23.5108 31.2394 23.703 31.3325 23.7631 31.4373C23.8712 31.6235 23.8832 31.6235 23.8952 31.3791C23.8952 31.1463 23.8351 31.1231 23.3307 31.1231H22.7542V32.1123Z" fill="black"/>
<path d="M27.5226 31.3676C27.5466 31.4374 27.6187 31.4839 27.6787 31.4839C27.7388 31.4839 27.8108 31.4374 27.8349 31.3676C27.8589 31.2979 27.7868 31.2397 27.6787 31.2397C27.5706 31.2397 27.4986 31.2979 27.5226 31.3676Z" fill="black"/>
<path d="M5.41016 31.7515C5.20597 31.9843 5.37413 32.2869 5.71044 32.2869C6.02273 32.2869 6.10681 31.9727 5.85457 31.7283C5.67441 31.5537 5.57832 31.5537 5.41016 31.7515Z" fill="black"/>
<path d="M15.3913 31.9377C15.6556 32.089 15.7877 32.7175 15.6075 32.927C15.4274 33.1365 15.6195 33.1598 15.8237 32.9619C16.0639 32.7292 15.9919 32.2054 15.7036 32.0076C15.5595 31.9028 15.3793 31.8214 15.3073 31.8214C15.2472 31.8214 15.2832 31.8795 15.3913 31.9377Z" fill="black"/>
<path d="M21.1327 32.4382C21.1688 32.799 21.2528 33.0434 21.3609 33.0783C21.481 33.1133 21.5051 33.0783 21.457 32.9387C21.409 32.8223 21.3729 32.5546 21.3729 32.3451C21.3729 32.1356 21.3009 31.9378 21.2168 31.9028C21.1087 31.8679 21.0847 31.996 21.1327 32.4382Z" fill="black"/>
<path d="M25.1805 31.9028C25.1324 31.9378 24.9523 31.9727 24.7721 31.961C24.4478 31.961 24.4358 31.9727 24.4358 32.5313C24.4358 32.962 24.4838 33.1016 24.616 33.1016C24.7481 33.1016 24.7961 32.9736 24.7961 32.6128C24.7961 32.1938 24.8322 32.1123 25.0363 32.1123C25.2405 32.1123 25.2766 32.1938 25.2766 32.6128C25.2766 32.9736 25.3246 33.1016 25.4567 33.1016C25.6009 33.1016 25.6249 32.9852 25.6009 32.5779C25.5528 32.0891 25.3366 31.7399 25.1805 31.9028Z" fill="black"/>
<path d="M29.1441 31.9028C29.0961 31.9378 28.9159 31.9727 28.7357 31.961C28.4114 31.961 28.3994 31.9727 28.3994 32.5313C28.3994 32.962 28.4475 33.1016 28.5796 33.1016C28.7117 33.1016 28.7597 32.9736 28.7597 32.6128C28.7597 32.1938 28.7958 32.1123 29 32.1123C29.2042 32.1123 29.2402 32.1938 29.2402 32.6128C29.2402 32.9736 29.2882 33.1016 29.4204 33.1016C29.5645 33.1016 29.5885 32.9852 29.5645 32.5779C29.5164 32.0891 29.3002 31.7399 29.1441 31.9028Z" fill="black"/>
<path d="M14.7668 32.1589C14.5866 32.4848 14.6227 32.6943 14.8629 32.9038C15.1392 33.1482 15.3313 33.1598 15.1271 32.9271C15.0431 32.8339 15.007 32.5663 15.0311 32.3451C15.0791 31.9029 14.959 31.8097 14.7668 32.1589Z" fill="black"/>
<path d="M16.3883 32.5197C16.3883 32.962 16.4363 33.1016 16.5685 33.1016C16.7126 33.1016 16.7366 32.9736 16.7126 32.5197C16.6525 31.7399 16.3883 31.7399 16.3883 32.5197Z" fill="black"/>
<path d="M16.8087 31.985C16.8087 32.0891 17.169 32.147 17.2291 32.0544C17.2771 31.985 17.1931 31.9386 17.0609 31.9386C16.9168 31.9386 16.8087 31.9618 16.8087 31.985Z" fill="black"/>
<path d="M17.6134 32.1472C17.2171 32.5662 17.5053 33.1133 18.1059 33.09C18.4302 33.0783 18.4302 33.0783 18.1419 32.9969C17.7936 32.9038 17.6375 32.5662 17.7816 32.1938C17.9017 31.8796 17.8657 31.8679 17.6134 32.1472Z" fill="black"/>
<path d="M18.202 32.1127C18.25 32.2056 18.3221 32.2869 18.3822 32.2869C18.4422 32.2869 18.4903 32.2056 18.4903 32.1127C18.4903 32.0198 18.4062 31.9385 18.3101 31.9385C18.202 31.9385 18.166 32.0082 18.202 32.1127Z" fill="black"/>
<path d="M18.9106 32.5313C18.9106 32.962 18.9587 33.1016 19.0908 33.1016C19.2229 33.1016 19.271 32.9736 19.271 32.6128C19.271 32.1938 19.307 32.1123 19.5112 32.1123C19.7154 32.1123 19.7514 32.1938 19.7514 32.6128C19.7514 32.9736 19.7995 33.1016 19.9316 33.1016C20.0877 33.1016 20.1118 32.9969 20.0517 32.543L19.9916 31.996L19.4511 31.9727L18.9106 31.961V32.5313Z" fill="black"/>
<path d="M20.6163 32.0198C20.4962 32.1243 20.5082 32.2869 20.6403 32.2869C20.7003 32.2869 20.7724 32.2056 20.8204 32.1127C20.8805 31.9385 20.7604 31.8805 20.6163 32.0198Z" fill="black"/>
<path d="M26.1533 32.0076C26.1053 32.0774 26.0812 32.3917 26.1053 32.7059C26.1293 33.0202 26.0933 33.3461 26.0332 33.4159C25.853 33.637 26.0092 33.9164 26.3215 33.9164C26.5737 33.9164 26.5737 33.9047 26.3575 33.7534C26.0572 33.5439 26.2014 33.218 26.5977 33.218C26.958 33.218 27.1142 33.4974 26.898 33.7418C26.8139 33.8349 26.7779 33.9164 26.8259 33.9164C26.862 33.9164 26.9821 33.7883 27.0902 33.6254C27.3304 33.2646 27.1502 32.9853 26.6578 32.9853C26.2854 32.9853 26.1413 32.8805 26.2734 32.7059C26.3335 32.6361 26.3455 32.415 26.2974 32.2287C26.2614 32.0309 26.1893 31.9378 26.1533 32.0076Z" fill="black"/>
<path d="M26.7058 32.2869C26.7178 32.6593 26.934 32.6943 27.0061 32.3335C27.0301 32.2171 27.1022 32.0774 27.1863 32.0309C27.2583 31.9727 27.1863 31.9378 27.0061 31.9378C26.7299 31.9378 26.6938 31.9843 26.7058 32.2869Z" fill="black"/>
<path d="M27.5586 32.5197C27.5586 32.962 27.6066 33.1016 27.7388 33.1016C27.8829 33.1016 27.9069 32.9736 27.8829 32.5197C27.8228 31.7399 27.5586 31.7399 27.5586 32.5197Z" fill="black"/>
<path d="M30.105 32.1472C29.7087 32.5662 29.9969 33.1133 30.5975 33.09L30.9218 33.0783L30.6215 32.9969C30.3573 32.927 30.3212 32.8456 30.3212 32.4266C30.3212 32.1589 30.3212 31.9378 30.3092 31.9378C30.3092 31.9378 30.2131 32.0309 30.105 32.1472Z" fill="black"/>
<path d="M30.6936 32.1127C30.7416 32.2056 30.8137 32.2869 30.8737 32.2869C30.9338 32.2869 30.9818 32.2056 30.9818 32.1127C30.9818 32.0198 30.8978 31.9385 30.8017 31.9385C30.6936 31.9385 30.6575 32.0082 30.6936 32.1127Z" fill="black"/>
<path d="M31.4022 32.1705C31.222 32.3568 31.198 32.4731 31.2941 32.7292C31.3901 32.9852 31.4862 33.0434 31.8225 33.0667C32.1829 33.09 32.1949 33.0783 31.9427 32.9969C31.6784 32.927 31.6424 32.8456 31.6424 32.4266C31.6424 32.1589 31.6424 31.9378 31.6304 31.9378C31.6304 31.9378 31.5223 32.0425 31.4022 32.1705Z" fill="black"/>
<path d="M32.0147 32.1127C32.0628 32.2056 32.1348 32.2869 32.1949 32.2869C32.255 32.2869 32.303 32.2056 32.303 32.1127C32.303 32.0198 32.2189 31.9385 32.1228 31.9385C32.0147 31.9385 31.9787 32.0082 32.0147 32.1127Z" fill="black"/>
<path d="M32.7234 32.5197C32.7234 32.962 32.7714 33.1016 32.9036 33.1016C33.0477 33.1016 33.0717 32.9736 33.0477 32.5197C32.9876 31.7399 32.7234 31.7399 32.7234 32.5197Z" fill="black"/>
<path d="M33.1438 31.985C33.1438 32.0891 33.5041 32.147 33.5642 32.0544C33.6122 31.985 33.5282 31.9386 33.396 31.9386C33.2519 31.9386 33.1438 31.9618 33.1438 31.985Z" fill="black"/>
<path d="M38.5969 32.5779C38.5008 32.8223 38.6209 33.1016 38.8251 33.1016C38.9212 33.1016 39.0653 33.0202 39.1494 32.927C39.2695 32.7874 39.2695 32.7175 39.1494 32.5779C39.0653 32.4848 38.9212 32.4033 38.8251 32.4033C38.741 32.4033 38.6329 32.4848 38.5969 32.5779Z" fill="black"/>
<path d="M20.7484 32.6477C20.4481 32.8107 20.4842 33.1016 20.7844 33.1016C20.9886 33.1016 21.0126 33.0667 20.9045 32.9503C20.8085 32.8339 20.8205 32.7525 20.9166 32.6594C21.0967 32.4848 21.0247 32.4848 20.7484 32.6477Z" fill="black"/>
<path d="M6.35903 33.2762C6.22691 33.4275 6.22691 33.4973 6.39506 33.6486C6.6473 33.8931 6.98361 33.7534 6.93556 33.4275C6.88752 33.1016 6.57523 33.0202 6.35903 33.2762Z" fill="black"/>
<path d="M37.648 33.9512C37.3717 34.1491 37.4798 34.4983 37.8281 34.4983C38.1404 34.4983 38.2725 34.184 38.0443 33.9629C37.9002 33.8232 37.8401 33.8232 37.648 33.9512Z" fill="black"/>
<path d="M7.48806 34.6612C7.37996 34.9405 7.52409 35.1966 7.80034 35.1966C8.00453 35.1966 8.05258 35.1384 8.01654 34.8824C7.98051 34.5216 7.60817 34.3702 7.48806 34.6612Z" fill="black"/>
<path d="M36.3867 35.3712C36.2546 35.5225 36.2546 35.5923 36.4228 35.7436C36.675 35.988 37.0113 35.8484 36.9633 35.5225C36.9152 35.1966 36.6029 35.1151 36.3867 35.3712Z" fill="black"/>
<path d="M8.68923 35.9531C8.58113 36.2208 8.72526 36.4768 9.00152 36.4768C9.30179 36.4768 9.44593 36.1859 9.24174 35.9531C9.04956 35.732 8.7733 35.732 8.68923 35.9531Z" fill="black"/>
<path d="M35.1376 36.5816C34.9575 36.7795 34.9454 36.8144 35.1256 36.9773C35.3298 37.1868 35.6061 37.1286 35.7141 36.8842C35.7502 36.7911 35.6901 36.6398 35.594 36.535C35.3658 36.3139 35.3899 36.3139 35.1376 36.5816Z" fill="black"/>
<path d="M10.1065 37.0471C9.85428 37.1984 9.9864 37.5825 10.2987 37.6174C10.623 37.664 10.7791 37.3614 10.5629 37.1169C10.3948 36.9191 10.3227 36.9075 10.1065 37.0471Z" fill="black"/>
<path d="M33.6723 37.6989C33.5762 37.9433 33.6963 38.2226 33.9005 38.2226C34.1528 38.2226 34.357 37.9317 34.2729 37.7105C34.1768 37.4778 33.7564 37.4661 33.6723 37.6989Z" fill="black"/>
<path d="M11.5238 38.1645C11.3917 38.3158 11.3917 38.3856 11.5599 38.5369C11.8121 38.7813 12.1484 38.6416 12.1004 38.3158C12.0523 37.9899 11.74 37.9084 11.5238 38.1645Z" fill="black"/>
<path d="M32.231 38.6183C31.9427 38.8278 32.0989 39.177 32.4472 39.1305C32.6154 39.1072 32.7355 39.0024 32.7595 38.8511C32.8075 38.5485 32.5193 38.4205 32.231 38.6183Z" fill="black"/>
<path d="M13.0372 39.1072C12.9291 39.3632 13.2414 39.6775 13.5057 39.5727C13.6258 39.5378 13.6858 39.3981 13.6618 39.2468C13.6138 38.9093 13.1573 38.8162 13.0372 39.1072Z" fill="black"/>
<path d="M30.5374 39.5727C30.5013 39.6658 30.5494 39.8288 30.6455 39.9219C30.7896 40.0616 30.8496 40.0616 31.0418 39.9335C31.3181 39.7357 31.21 39.3865 30.8617 39.3865C30.7295 39.3865 30.5854 39.468 30.5374 39.5727Z" fill="black"/>
<path d="M14.791 39.7589C14.5868 39.9568 14.6108 40.1779 14.863 40.306C15.1032 40.434 15.3675 40.271 15.3675 40.0034C15.3675 39.7822 14.9471 39.6076 14.791 39.7589Z" fill="black"/>
<path d="M28.9399 40.143C28.7357 40.3758 28.8799 40.6667 29.1801 40.6667C29.3123 40.6667 29.4564 40.5853 29.4924 40.4922C29.5645 40.3176 29.3603 39.9684 29.1801 39.9684C29.1321 39.9684 29.024 40.0499 28.9399 40.143Z" fill="black"/>
<path d="M16.3763 40.4922C16.3282 40.5969 16.3763 40.7599 16.4724 40.853C16.7126 41.0857 17.0729 40.9344 17.0249 40.6202C16.9768 40.3176 16.4844 40.2128 16.3763 40.4922Z" fill="black"/>
<path d="M27.1383 40.725C27.0182 40.8646 27.0182 40.9345 27.1383 41.0741C27.3425 41.3069 27.5827 41.2953 27.7148 41.0392C27.943 40.6086 27.4626 40.3409 27.1383 40.725Z" fill="black"/>
<path d="M18.202 40.8414C17.9377 41.0974 18.0939 41.3884 18.4782 41.3418C18.8626 41.2953 18.9587 40.9577 18.6224 40.7948C18.4422 40.7017 18.3461 40.7133 18.202 40.8414Z" fill="black"/>
<path d="M25.3846 41.0741C25.2885 41.3185 25.4086 41.5978 25.6128 41.5978C25.865 41.5978 26.0692 41.3069 25.9852 41.0857C25.8891 40.853 25.4687 40.8413 25.3846 41.0741Z" fill="black"/>
<path d="M19.9796 41.1905C19.8835 41.4349 20.0036 41.7142 20.2078 41.7142C20.3039 41.7142 20.448 41.6328 20.5321 41.5397C20.6522 41.4 20.6522 41.3302 20.5321 41.1905C20.448 41.0974 20.3039 41.0159 20.2078 41.0159C20.1237 41.0159 20.0156 41.0974 19.9796 41.1905Z" fill="black"/>
<path d="M21.7813 41.3069C21.6852 41.5513 21.8054 41.8306 22.0095 41.8306C22.1056 41.8306 22.2498 41.7492 22.3338 41.656C22.454 41.5164 22.454 41.4466 22.3338 41.3069C22.2498 41.2138 22.1056 41.1323 22.0095 41.1323C21.9255 41.1323 21.8174 41.2138 21.7813 41.3069Z" fill="black"/>
<path d="M23.619 41.2138C23.4629 41.3534 23.5349 41.6909 23.7391 41.7608C23.9914 41.8539 24.3157 41.5629 24.2196 41.3185C24.1475 41.1323 23.7631 41.0625 23.619 41.2138Z" fill="black"/>
</svg>
